# File created by Blade
# Date/Time:  Wed Apr 08 17:24:25 2015
#---------------------------------------------------------
:version 1.10
:name HOM
:units
  mass 1.0
  length 1.000000
  angle deg
:documentation
     Acclaim Skeleton File
:root
   axis xyz
   order TX TY TZ RX RY RZ
   position 0.000000 0.000000 0.000000
   orientation 0 0 0
:bonedata
   begin
      id 1
      name Spine_dum
      direction 0.000000 1.000000 0.000000
      length 5.893853
      axis 0.0 0.0 0.0 xyz
   end
   begin
      id 2
      name LeftUpLeg_dum
      direction 1.000000 0.000000 0.000000
      length 3.697939
      axis 0.0 0.0 0.0 xyz
   end
   begin
      id 3
      name RightUpLeg_dum
      direction -1.000000 0.000000 0.000000
      length 3.697939
      axis 0.0 0.0 0.0 xyz
   end
   begin
      id 4
      name Spine
      direction 0.000000 1.000000 0.000000
      length 0.000000
      axis 0.0 0.0 0.0 xyz
      dof rx ry rz
   end
   begin
      id 5
      name Spine_dum1
      direction 0.000000 1.000000 0.000000
      length 16.447146
      axis 0.0 0.0 0.0 xyz
   end
   begin
      id 6
      name Spine_dum2
      direction 0.000000 1.000000 0.000000
      length 10.900383
      axis 0.0 0.0 0.0 xyz
   end
   begin
      id 7
      name Spine_dum3
      direction 0.000000 1.000000 0.000000
      length 10.900383
      axis 0.0 0.0 0.0 xyz
   end
   begin
      id 8
      name Head
      direction 0.000000 1.000000 0.000000
      length 4.527550
      axis 0.0 0.0 0.0 xyz
      dof rx ry rz
   end
   begin
      id 9
      name LeftShoulder
      direction 1.000000 0.000000 0.000000
      length 8.219464
      axis 0.0 0.0 -90.0 xyz
      dof rx ry rz
   end
   begin
      id 10
      name LeftArm
      direction 1.000000 0.000000 0.000000
      length 11.094937
      axis 0.0 0.0 -90.0 xyz
      dof rx ry rz
   end
   begin
      id 11
      name LeftForeArm
      direction 1.000000 0.000000 0.000000
      length 9.103875
      axis 0.0 0.0 -90.0 xyz
      dof ry rz rx
   end
   begin
      id 12
      name LeftHand
      direction 0.000000 0.000000 0.000000
      length 0.000000
      axis 0.0 0.0 -90.0 xyz
      dof rx ry rz
   end
   begin
      id 13
      name LeftHand_dum1
      direction 0.000000 0.000000 0.000000
      length 0.000000
      axis 0.0 0.0 -90.0 xyz
   end
   begin
      id 14
      name LeftHand_dum2
      direction 1.000000 0.000000 0.000000
      length 3.937000
      axis 0.0 0.0 -90.0 xyz
   end
   begin
      id 15
      name LeftHandThumb1
      direction 0.000000 0.000000 1.000000
      length 3.937000
      axis 0.0 0.0 -90.0 xyz
      dof rx rz ry
   end
   begin
      id 16
      name RightShoulder
      direction -1.000000 0.000000 0.000000
      length 8.219464
      axis 0.0 0.0 90.0 xyz
      dof rx ry rz
   end
   begin
      id 17
      name RightArm
      direction -1.000000 0.000000 0.000000
      length 11.094937
      axis 0.0 0.0 90.0 xyz
      dof rx ry rz
   end
   begin
      id 18
      name RightForeArm
      direction -1.000000 0.000000 0.000000
      length 9.103875
      axis 0.0 0.0 90.0 xyz
      dof ry rz rx
   end
   begin
      id 19
      name RightHand
      direction 0.000000 0.000000 0.000000
      length 0.000000
      axis 0.0 0.0 90.0 xyz
      dof rx ry rz
   end
   begin
      id 20
      name RightHand_dum1
      direction 0.000000 0.000000 0.000000
      length 0.000000
      axis 0.0 0.0 90.0 xyz
   end
   begin
      id 21
      name RightHand_dum2
      direction -1.000000 0.000000 0.000000
      length 3.937000
      axis 0.0 0.0 90.0 xyz
   end
   begin
      id 22
      name RightHandThumb1
      direction 0.000000 0.000000 1.000000
      length 3.937000
      axis 0.0 0.0 90.0 xyz
      dof rx rz ry
   end
   begin
      id 23
      name LeftUpLeg
      direction 0.000000 -1.000000 0.000000
      length 16.181467
      axis 0.0 0.0 0.0 xyz
      dof rx ry rz
   end
   begin
      id 24
      name LeftLeg
      direction 0.000000 -1.000000 0.000000
      length 16.501392
      axis 0.0 0.0 0.0 xyz
      dof rx ry rz
   end
   begin
      id 25
      name LeftFoot
      direction 0.000000 -0.258819 0.965926
      length 6.408245
      axis 15.0 0.0 0.0 xyz
      dof rx ry rz
   end
   begin
      id 26
      name LeftToeBase
      direction 0.000000 0.000000 1.000000
      length 2.952750
      axis 0.0 0.0 0.0 xyz
      dof rx ry rz
   end
   begin
      id 27
      name RightUpLeg
      direction 0.000000 -1.000000 0.000000
      length 16.181467
      axis 0.0 0.0 0.0 xyz
      dof rx ry rz
   end
   begin
      id 28
      name RightLeg
      direction 0.000000 -1.000000 0.000000
      length 16.501392
      axis 0.0 0.0 0.0 xyz
      dof rx ry rz
   end
   begin
      id 29
      name RightFoot
      direction 0.000000 -0.258819 0.965926
      length 6.408245
      axis 15.0 0.0 0.0 xyz
      dof rx ry rz
   end
   begin
      id 30
      name RightToeBase
      direction 0.000000 0.000000 1.000000
      length 2.952750
      axis 0.0 0.0 0.0 xyz
      dof rx ry rz
   end
:hierarchy
   begin
      root Spine_dum LeftUpLeg_dum RightUpLeg_dum
      Spine_dum Spine
      LeftUpLeg_dum LeftUpLeg
      RightUpLeg_dum RightUpLeg
      Spine Spine_dum1 Spine_dum2 Spine_dum3
      Spine_dum1 Head
      Spine_dum2 LeftShoulder
      Spine_dum3 RightShoulder
      LeftShoulder LeftArm
      LeftArm LeftForeArm
      LeftForeArm LeftHand
      LeftHand LeftHand_dum1 LeftHand_dum2
      LeftHand_dum1 LeftHandThumb1
      RightShoulder RightArm
      RightArm RightForeArm
      RightForeArm RightHand
      RightHand RightHand_dum1 RightHand_dum2
      RightHand_dum1 RightHandThumb1
      LeftUpLeg LeftLeg
      LeftLeg LeftFoot
      LeftFoot LeftToeBase
      RightUpLeg RightLeg
      RightLeg RightFoot
      RightFoot RightToeBase
   end

# File created by Blade
# Date/Time:  Wed Apr 08 17:24:36 2015
# Frame Rate: 120.000 fps
#------------------------------------------------------
:FULLY-SPECIFIED
:DEGREES
580
root 6.789828 36.552949 2.902069 1.000633 -69.719590 -42.437274
Spine 49.870880 -1.529880 17.652426
Head -11.072289 13.737907 -0.110809
LeftShoulder 3.386994 13.293397 20.251413
LeftArm 39.533433 31.632669 -63.412047
LeftForeArm -12.691945 0.000000 47.529974
LeftHand -16.067115 -0.000000 -3.125127
LeftHandThumb1 -26.253704 0.000000 33.147579
RightShoulder -9.788213 -42.962169 2.784253
RightArm 68.448077 -7.205274 45.025408
RightForeArm 57.493352 -0.000000 32.667751
RightHand 2.020443 -0.000000 26.345449
RightHandThumb1 -24.326973 -0.000000 -32.862282
LeftUpLeg 39.452218 18.402306 25.558332
LeftLeg 20.185526 -0.000000 -0.000000
LeftFoot -19.227786 6.981250 -1.356423
LeftToeBase 2.763011 -0.000000 -0.000000
RightUpLeg -80.773727 -8.584281 15.587111
RightLeg 147.880206 -0.000000 -0.000000
RightFoot 16.068102 -0.141535 10.894954
RightToeBase -9.523506 -0.000000 0.000000
581
root 6.778895 36.551088 2.920117 1.155412 -69.774107 -42.465056
Spine 49.767922 -1.393988 17.741110
Head -11.069794 13.645763 -0.140838
LeftShoulder 3.260320 13.444390 20.159970
LeftArm 38.971782 31.634717 -63.610389
LeftForeArm -11.994275 -0.000000 47.059415
LeftHand -16.140227 -0.000000 -3.030265
LeftHandThumb1 -26.253704 0.000000 33.147579
RightShoulder -10.067523 -42.983091 2.947955
RightArm 68.058799 -7.170624 45.683228
RightForeArm 57.398321 -0.000000 33.045514
RightHand 2.058782 -0.000000 26.375000
RightHandThumb1 -24.326973 -0.000000 -32.862282
LeftUpLeg 39.419343 18.541876 25.559401
LeftLeg 20.145540 -0.000000 -0.000000
LeftFoot -19.214883 6.976279 -1.326077
LeftToeBase 2.743294 -0.000000 -0.000000
RightUpLeg -80.930720 -8.845612 15.337680
RightLeg 147.955298 -0.000000 -0.000000
RightFoot 15.704057 -0.210407 10.634679
RightToeBase -9.691252 -0.000000 0.000000
582
root 6.772404 36.547092 2.935323 1.383086 -69.871858 -42.500097
Spine 49.615014 -1.191314 17.831236
Head -11.062889 13.571141 -0.126920
LeftShoulder 3.137227 13.566595 20.084986
LeftArm 38.423318 31.638605 -63.850698
LeftForeArm -11.386423 -0.000000 46.499348
LeftHand -16.114964 -0.000000 -2.970646
LeftHandThumb1 -26.253704 0.000000 33.147579
RightShoulder -10.388657 -43.067002 3.165619
RightArm 67.736330 -7.097250 46.214266
RightForeArm 57.380357 -0.000000 33.444929
RightHand 1.976039 0.000000 26.446345
RightHandThumb1 -24.326973 -0.000000 -32.862282
LeftUpLeg 39.321754 18.634557 25.408602
LeftLeg 20.060466 -0.000000 -0.000000
LeftFoot -19.215456 7.125250 -1.354364
LeftToeBase 2.748722 -0.000000 -0.000000
RightUpLeg -81.162536 -9.042075 15.189616
RightLeg 148.062086 -0.000000 -0.000000
RightFoot 15.147465 -0.426629 10.483548
RightToeBase -9.369186 -0.000000 0.000000
583
root 6.760510 36.547186 2.948056 1.611079 -69.930100 -42.620261
Spine 49.520329 -1.036035 17.951465
Head -11.048465 13.472658 -0.075957
LeftShoulder 3.006645 13.708245 19.979430
LeftArm 38.001373 31.732968 -63.887335
LeftForeArm -10.603711 0.000000 45.976082
LeftHand -16.073341 0.000000 -2.702620
LeftHandThumb1 -26.253704 0.000000 33.147579
RightShoulder -10.716845 -43.179674 3.374024
RightArm 67.427380 -7.049056 46.680078
RightForeArm 57.343505 0.000000 33.914590
RightHand 1.952217 -0.000000 26.470946
RightHandThumb1 -24.326973 -0.000000 -32.862282
LeftUpLeg 39.284072 18.683579 25.356911
LeftLeg 20.002238 -0.000000 -0.000000
LeftFoot -19.204179 7.214422 -1.359298
LeftToeBase 2.716720 -0.000000 -0.000000
RightUpLeg -81.315493 -9.271604 15.063458
RightLeg 148.167297 -0.000000 -0.000000
RightFoot 14.585746 -0.604107 10.548088
RightToeBase -9.024529 -0.000000 0.000000
584
root 6.749966 36.546083 2.959616 1.938972 -70.026058 -42.791020
Spine 49.384671 -0.830846 18.080617
Head -11.007837 13.368060 -0.031736
LeftShoulder 2.888003 13.791525 19.910687
LeftArm 37.500650 31.735573 -64.176710
LeftForeArm -9.522234 -0.000000 45.287210
LeftHand -15.968396 -0.000000 -2.668619
LeftHandThumb1 -26.253704 0.000000 33.147579
RightShoulder -11.065702 -43.272577 3.615553
RightArm 67.152806 -7.015292 46.967504
RightForeArm 57.478204 -0.000000 34.348554
RightHand 1.867242 -0.000000 26.565085
RightHandThumb1 -24.326973 -0.000000 -32.862282
LeftUpLeg 39.203482 18.764016 25.281533
LeftLeg 19.948481 -0.000000 -0.000000
LeftFoot -19.184487 7.332885 -1.377601
LeftToeBase 2.653071 -0.000000 -0.000000
RightUpLeg -81.525728 -9.435233 15.048065
RightLeg 148.273292 -0.000000 -0.000000
RightFoot 14.234947 -0.745117 9.998621
RightToeBase -9.633795 -0.000000 0.000000
585
root 6.737712 36.546650 2.971492 2.285538 -70.120562 -43.008902
Spine 49.276519 -0.641749 18.194975
Head -10.985793 13.303839 0.060644
LeftShoulder 2.759945 13.866675 19.855903
LeftArm 36.995518 31.699465 -64.539853
LeftForeArm -8.274077 -0.000000 44.539574
LeftHand -15.853372 -0.000000 -2.728433
LeftHandThumb1 -26.253704 0.000000 33.147579
RightShoulder -11.423154 -43.389716 3.903311
RightArm 66.913150 -6.964754 47.103007
RightForeArm 57.598256 -0.000000 34.833225
RightHand 1.845697 -0.000000 26.521979
RightHandThumb1 -24.326973 -0.000000 -32.862282
LeftUpLeg 39.156898 18.836894 25.234945
LeftLeg 19.881545 -0.000000 -0.000000
LeftFoot -19.160244 7.473180 -1.352334
LeftToeBase 2.602517 -0.000000 -0.000000
RightUpLeg -81.704423 -9.589871 15.027041
RightLeg 148.398312 -0.000000 -0.000000
RightFoot 13.727172 -0.831419 9.991688
RightToeBase -9.342546 -0.000000 0.000000
